
<svg xmlns="http://www.w3.org/2000/svg" version="1.1" xmlns:xlink="http://www.w3.org/1999/xlink" width="512" height="512" x="0" y="0" viewBox="0 0 512 512" style="enable-background:new 0 0 512 512" xml:space="preserve" class=""><g><path fill="#a3d4ff" d="M422.852 450.161C477.435 403.213 512 333.643 512 256 512 114.615 397.385 0 256 0S0 114.615 0 256c0 77.643 34.565 147.213 89.148 194.161z" opacity="1" data-original="#a3d4ff"></path><path fill="#65b1fc" d="M512 256a258.54 258.54 0 0 0-2.092-32.882l-94.887-94.887-311.48 55.287 59.967 59.967 195.829 40.367 63.515 166.308C477.435 403.213 512 333.643 512 256z" opacity="1" data-original="#65b1fc"></path><path fill="#a65d4e" d="M152.663 455.611c0-57.072 46.266-103.337 103.337-103.337s103.337 46.266 103.337 103.337v34.659a256.16 256.16 0 0 0 63.583-40.167l-37.122-207.052H126.202L89.08 450.103a256.16 256.16 0 0 0 63.583 40.167z" opacity="1" data-original="#a65d4e"></path><path fill="#784132" d="M359.337 456.611v33.659a256.16 256.16 0 0 0 63.583-40.167l-37.122-207.052H256v110.222c57.072 0 103.337 46.266 103.337 103.338z" opacity="1" data-original="#784132"></path><path fill="#c38778" d="M256 351.273c-57.072 0-103.337 46.266-103.337 103.337v35.676C184.268 504.247 219.228 512 256 512s71.733-7.753 103.337-21.713v-35.676c0-57.072-46.265-103.338-103.337-103.338z" opacity="1" data-original="#c38778"></path><path fill="#a65d4e" d="M256 351.273V512c36.772 0 71.732-7.753 103.337-21.713V454.61c0-57.071-46.265-103.337-103.337-103.337zM143.892 122.665c16.804 11.144 46.094 50.181 34.952 66.985-11.143 16.804-58.498 5.012-75.303-6.132-16.804-11.144-21.394-33.8-10.251-50.605s33.797-21.392 50.602-10.248z" opacity="1" data-original="#a65d4e"></path><path fill="#784132" d="M368.108 122.665c-16.804 11.144-46.094 50.181-34.952 66.985s58.498 5.012 75.303-6.132c16.804-11.144 21.394-33.8 10.251-50.605s-33.797-21.392-50.602-10.248z" opacity="1" data-original="#784132"></path><path fill="#c38778" d="M399.348 229.77c0 70.967-64.179 97.087-143.348 97.087s-143.348-26.12-143.348-97.087S176.831 77 256 77s143.348 81.802 143.348 152.77z" opacity="1" data-original="#c38778"></path><path fill="#a65d4e" d="M256 77v249.857c79.169 0 143.348-26.12 143.348-97.087C399.348 158.802 335.169 77 256 77z" opacity="1" data-original="#a65d4e"></path><circle cx="187.471" cy="166.894" r="14.953" fill="#414952" opacity="1" data-original="#414952"></circle><circle cx="324.529" cy="166.894" r="14.953" fill="#23272b" opacity="1" data-original="#23272b"></circle><path fill="#a65d4e" d="M250.247 169.585h11.506c23.314 0 41.307 17.542 38.272 37.314l-5.753 37.483c-2.522 16.432-18.896 28.719-38.272 28.719-19.376 0-35.75-12.287-38.272-28.719l-5.753-37.483c-3.035-19.771 14.958-37.314 38.272-37.314z" opacity="1" data-original="#a65d4e"></path><path fill="#784132" d="M261.753 169.585H256v103.516c19.376 0 35.75-12.287 38.272-28.719l5.753-37.483c3.035-19.771-14.958-37.314-38.272-37.314z" opacity="1" data-original="#784132"></path><path fill="#414952" d="M282.379 210.204c0 11.753-11.81 21.281-26.379 21.281s-26.379-9.528-26.379-21.281 11.81-12.702 26.379-12.702 26.379.949 26.379 12.702z" opacity="1" data-original="#414952"></path><path fill="#23272b" d="M256 197.502v33.983c14.569 0 26.379-9.528 26.379-21.281s-11.81-12.702-26.379-12.702z" opacity="1" data-original="#23272b"></path></g></svg>