<svg xmlns="http://www.w3.org/2000/svg" version="1.1" xmlns:xlink="http://www.w3.org/1999/xlink" width="512" height="512" x="0" y="0" viewBox="0 0 512 512" style="enable-background:new 0 0 512 512" xml:space="preserve" class=""><g><path fill="#1dd882" d="M369.321 485.595C453.857 443.791 512 356.692 512 256 512 114.615 397.385 0 256 0S0 114.615 0 256c0 100.692 58.143 187.791 142.679 229.595z" opacity="1" data-original="#1dd882" class=""></path><path fill="#0caa5f" d="M504.375 193.804 367.279 56.577l-2.212-2.082-37.421 146.251-144.56-144.692-1.692-1.559-30.873 284.573 12.273 12.273 23.831-7.353 113.85 13.683 68.844 127.91C453.855 443.781 512 356.691 512 256c0-21.453-2.654-42.283-7.625-62.196z" opacity="1" data-original="#0caa5f" class=""></path><path fill="#e9edf5" d="M204.579 137.021c0 59.732-18.095 127.002-40.416 127.002s-40.416-67.27-40.416-127.002 18.095-89.308 40.416-89.308 40.416 29.576 40.416 89.308z" opacity="1" data-original="#e9edf5" class=""></path><path fill="#cdd2e1" d="M186.616 145.687c-.351 33.02-10.748 70.1-23.087 69.969s-21.947-37.424-21.596-70.444 10.527-49.263 22.866-49.132c12.338.132 22.167 16.587 21.817 49.607zM307.421 137.021c0 59.732 18.095 127.002 40.416 127.002s40.416-67.27 40.416-127.002-18.095-89.308-40.416-89.308c-22.321.001-40.416 29.576-40.416 89.308z" opacity="1" data-original="#cdd2e1"></path><path fill="#afb4c8" d="M325.384 145.687c.351 33.02 10.748 70.1 23.087 69.969s21.947-37.424 21.596-70.444-10.527-49.263-22.866-49.132c-12.338.132-22.167 16.587-21.817 49.607z" opacity="1" data-original="#afb4c8"></path><path fill="#e9edf5" d="M184.299 463.544c0-39.599 32.102-71.701 71.701-71.701s71.701 32.102 71.701 71.701v38.26a254.294 254.294 0 0 0 41.763-16.259l-23.403-156.192H165.939l-23.403 156.192a254.294 254.294 0 0 0 41.763 16.259z" opacity="1" data-original="#e9edf5" class=""></path><path fill="#cdd2e1" d="M256 391.843c39.599 0 71.701 32.102 71.701 71.701v38.26a254.294 254.294 0 0 0 41.763-16.259l-23.403-156.192h-90.075v62.491l.014-.001z" opacity="1" data-original="#cdd2e1"></path><path fill="#ffffff" d="M381.541 287.176c0 61.042-56.207 83.508-125.541 83.508s-125.541-22.466-125.541-83.508S186.666 155.774 256 155.774s125.541 70.361 125.541 131.402z" opacity="1" data-original="#ffffff"></path><path fill="#e9edf5" d="M256 155.774h-.014v214.91H256c69.334 0 125.541-22.467 125.541-83.508S325.334 155.774 256 155.774z" opacity="1" data-original="#e9edf5" class=""></path><path fill="#e9edf5" d="M277.922 292.057h-43.844c-16.95 0-30.69 13.741-30.69 30.69s13.74 30.69 30.69 30.69c8.588 0 16.337-3.514 21.908-9.199a30.617 30.617 0 0 0 21.936 9.199c16.95 0 30.69-13.741 30.69-30.69 0-16.95-13.74-30.69-30.69-30.69z" opacity="1" data-original="#e9edf5" class=""></path><path fill="#cdd2e1" d="M277.922 292.057h-21.936v52.182c.005-.005-.005.005 0 0a30.616 30.616 0 0 0 21.936 9.198c16.95 0 30.69-13.74 30.69-30.69s-13.74-30.69-30.69-30.69z" opacity="1" data-original="#cdd2e1"></path><path fill="#414952" d="M282.379 299.183c0 11.753-11.81 21.281-26.379 21.281s-26.379-9.528-26.379-21.281 11.81-12.702 26.379-12.702 26.379.949 26.379 12.702z" opacity="1" data-original="#414952"></path><path fill="#23272b" d="M256 286.481h-.014v33.982H256c14.569 0 26.379-9.528 26.379-21.281s-11.81-12.701-26.379-12.701z" opacity="1" data-original="#23272b"></path><circle cx="181.394" cy="256.658" r="17.267" fill="#555a66" transform="rotate(-80.85 181.377 256.711)" opacity="1" data-original="#555a66"></circle><circle cx="330.606" cy="256.658" r="17.267" fill="#333940" transform="rotate(-80.85 330.605 256.733)" opacity="1" data-original="#333940" class=""></circle><path fill="#ffffff" d="M256 390.843c-39.599 0-71.701 32.102-71.701 71.701v39.279C207.05 508.448 231.11 512 256 512s48.95-3.552 71.701-10.177v-39.279c0-39.599-32.102-71.701-71.701-71.701z" opacity="1" data-original="#ffffff"></path><path fill="#e9edf5" d="M256 390.843h-.014V512H256c24.89 0 48.95-3.552 71.701-10.177v-39.279c0-39.599-32.102-71.701-71.701-71.701z" opacity="1" data-original="#e9edf5" class=""></path></g></svg>