<svg xmlns="http://www.w3.org/2000/svg" version="1.1" xmlns:xlink="http://www.w3.org/1999/xlink" width="512" height="512" x="0" y="0" viewBox="0 0 512 512" style="enable-background:new 0 0 512 512" xml:space="preserve" class=""><g><path fill="#ffce00" d="M512 256c0 141.387-114.613 256-256 256S0 397.387 0 256 114.613 0 256 0s256 114.613 256 256zm0 0" opacity="1" data-original="#ffce00" class=""></path><path fill="#ffa300" d="M512 256c0-9.773-.566-19.414-1.633-28.902l-109.93-109.93L311.286 367l95.723 95.719C470.652 416.149 512 340.906 512 256zm0 0" opacity="1" data-original="#ffa300"></path><path fill="#555a66" d="M403.238 242.535c-9.37-64.117-72.465-112.2-147.238-112.2S118.133 178.419 108.762 242.54L79.684 441.598C125.594 485.223 187.668 512 256 512s130.406-26.777 176.316-70.402zm0 0" opacity="1" data-original="#555a66"></path><path fill="#333940" d="m432.316 441.598-29.082-199.063c-9.367-64.117-72.46-112.2-147.234-112.2-.094 0-.191.005-.285.005v381.656c.094 0 .187.004.285.004 68.332 0 130.406-26.777 176.316-70.402zm0 0" opacity="1" data-original="#333940"></path><path fill="#555a66" d="M190.688 149.52c0 25.503-20.676 46.18-46.18 46.18s-46.18-20.677-46.18-46.18c0-25.504 20.676-46.18 46.18-46.18s46.18 20.676 46.18 46.18zm0 0" opacity="1" data-original="#555a66"></path><path fill="#afb4c8" d="M168.594 149.52c0 13.3-10.785 24.085-24.086 24.085-13.301 0-24.086-10.785-24.086-24.085s10.785-24.086 24.086-24.086c13.3 0 24.086 10.785 24.086 24.086zm0 0" opacity="1" data-original="#afb4c8"></path><path fill="#333940" d="M413.672 149.52c0 25.503-20.676 46.18-46.18 46.18s-46.18-20.677-46.18-46.18c0-25.504 20.676-46.18 46.18-46.18s46.18 20.676 46.18 46.18zm0 0" opacity="1" data-original="#333940"></path><path fill="#9196aa" d="M391.578 149.52c0 13.3-10.785 24.085-24.086 24.085-13.3 0-24.086-10.785-24.086-24.085s10.785-24.086 24.086-24.086c13.301 0 24.086 10.785 24.086 24.086zm0 0" opacity="1" data-original="#9196aa"></path><path fill="#ffffff" d="M407.02 256.328c0 84.496-68.497 152.992-152.993 152.992s-152.992-68.496-152.992-152.992c0-84.492 68.496-152.988 152.992-152.988S407.02 171.836 407.02 256.328zm0 0" opacity="1" data-original="#ffffff"></path><path fill="#f2f6fc" d="M407.02 256.332c0-83.934-67.59-152.066-151.305-152.973v305.942c83.715-.906 151.305-69.04 151.305-152.969zm0 0" opacity="1" data-original="#f2f6fc"></path><path fill="#7e8596" d="M214.566 241.691c0-23.527-20.91-42.601-46.707-42.601-25.793 0-46.707 19.074-46.707 42.601 0 23.532 20.914 42.606 46.707 42.606 25.797 0 46.707-19.074 46.707-42.606zm0 0" opacity="1" data-original="#7e8596"></path><path fill="#707789" d="M390.848 241.691c0-23.527-20.914-42.601-46.707-42.601-25.797 0-46.707 19.074-46.707 42.601 0 23.532 20.91 42.606 46.707 42.606 25.793 0 46.707-19.074 46.707-42.606zm0 0" opacity="1" data-original="#707789"></path><path fill="#555a66" d="M187.164 231.188c0 8.066-6.539 14.609-14.605 14.609s-14.606-6.543-14.606-14.61 6.54-14.605 14.606-14.605 14.605 6.54 14.605 14.606zm0 0" opacity="1" data-original="#555a66"></path><path fill="#333940" d="M354.047 231.188c0 8.066-6.54 14.609-14.606 14.609s-14.605-6.543-14.605-14.61 6.539-14.605 14.605-14.605 14.606 6.54 14.606 14.606zm0 0" opacity="1" data-original="#333940"></path><path fill="#555a66" d="m274.688 319.926-12.075 4.64a18.398 18.398 0 0 1-13.23 0l-12.07-4.64a18.429 18.429 0 0 1-11.813-17.203c0-10.176 8.25-18.426 18.43-18.426h24.14c10.176 0 18.426 8.25 18.426 18.426a18.424 18.424 0 0 1-11.808 17.203zm0 0" opacity="1" data-original="#555a66"></path><path fill="#333940" d="M268.07 284.293h-12.355v41.488c2.34.035 4.683-.36 6.902-1.215l12.07-4.64a18.433 18.433 0 0 0 11.813-17.203c0-10.176-8.25-18.43-18.43-18.43zm0 0" opacity="1" data-original="#333940"></path></g></svg>