<svg xmlns="http://www.w3.org/2000/svg" version="1.1" xmlns:xlink="http://www.w3.org/1999/xlink" width="512" height="512" x="0" y="0" viewBox="0 0 512 512" style="enable-background:new 0 0 512 512" xml:space="preserve" class=""><g><path fill="#4a7aff" d="M113.278 468.556C44.951 422.586 0 344.543 0 256 0 114.615 114.615 0 256 0s256 114.615 256 256c0 88.543-44.951 166.586-113.278 212.556z" opacity="1" data-original="#4a7aff"></path><path fill="#0053bf" d="M223.438 468.555h175.284C467.049 422.586 512 344.543 512 256c0-18.198-1.899-35.953-5.509-53.076L402.516 98.949z" opacity="1" data-original="#0053bf"></path><path fill="#e9edf5" d="M324.368 502.769c26.807-7.411 51.848-19.072 74.354-34.214l-45.741-169.252H159.019l-45.741 169.252c22.506 15.141 47.547 26.803 74.354 34.214z" opacity="1" data-original="#e9edf5"></path><path fill="#cdd2e1" d="m398.722 468.555-45.741-169.252h-97.337v203.466h68.724a254.782 254.782 0 0 0 74.354-34.214z" opacity="1" data-original="#cdd2e1"></path><path fill="#e9edf5" d="M210.252 127.473 109.484 98.95l25.51 96.939z" opacity="1" data-original="#e9edf5"></path><path fill="#bec3d2" d="m185.701 139.963-47.586-13.47 12.047 45.778z" opacity="1" data-original="#bec3d2"></path><path fill="#cdd2e1" d="M301.748 127.473 402.516 98.95l-25.51 96.939z" opacity="1" data-original="#cdd2e1"></path><path fill="#9196aa" d="m326.299 139.963 47.586-13.47-12.047 45.778z" opacity="1" data-original="#9196aa"></path><path fill="#ffffff" d="M387.294 237.265c0 72.512-58.782 100.67-131.294 100.67s-131.294-28.158-131.294-100.67S183.488 105.971 256 105.971s131.294 58.782 131.294 131.294z" opacity="1" data-original="#ffffff"></path><path fill="#e9edf5" d="M256 105.971c-.119 0-.237.004-.356.005v231.957l.356.002c72.512 0 131.294-28.158 131.294-100.67S328.512 105.971 256 105.971z" opacity="1" data-original="#e9edf5"></path><circle cx="189.562" cy="214.025" r="14.764" fill="#636978" opacity="1" data-original="#636978"></circle><circle cx="322.438" cy="214.025" r="14.764" fill="#414952" opacity="1" data-original="#414952"></circle><path fill="#636978" d="M277.017 236.853c0-9.988-9.409-12.464-21.017-12.464s-21.017 2.476-21.017 12.464c0 5.155 5.599 9.806 11.017 13.1v39.764h20v-39.764c5.418-3.294 11.017-7.945 11.017-13.1z" opacity="1" data-original="#636978"></path><path fill="#414952" d="M277.017 236.853c0-9.988-9.409-12.464-21.017-12.464-.12 0-.236.005-.356.005v65.322H266v-39.764c5.418-3.293 11.017-7.944 11.017-13.099z" opacity="1" data-original="#414952"></path><path fill="#ffffff" d="M256 356.178c-37.759 0-68.368 30.61-68.368 68.368v78.222C209.395 508.785 232.322 512 256 512s46.605-3.215 68.368-9.231v-78.222c0-37.759-30.609-68.369-68.368-68.369z" opacity="1" data-original="#ffffff"></path><path fill="#e9edf5" d="M256 356.178c-.12 0-.237.008-.356.009v155.81c.119 0 .237.003.356.003 23.678 0 46.605-3.215 68.368-9.231v-78.222c0-37.759-30.609-68.369-68.368-68.369z" opacity="1" data-original="#e9edf5"></path></g></svg>